<mxfile host="app.diagrams.net" agent="Mozilla/5.0 (Macintosh; Intel Mac OS X 10_15_7) AppleWebKit/537.36 (KHTML, like Gecko) Chrome/136.0.0.0 Safari/537.36" version="26.2.14">
  <diagram name="Page-1" id="iNbNzCFgPZ3pD9npFMAR">
    <mxGraphModel dx="2916" dy="1126" grid="1" gridSize="10" guides="1" tooltips="1" connect="1" arrows="1" fold="1" page="1" pageScale="1" pageWidth="850" pageHeight="1100" math="0" shadow="0">
      <root>
        <mxCell id="0" />
        <mxCell id="1" parent="0" />
        <mxCell id="FzDHs4p050p6bHUNoCHt-7" style="edgeStyle=orthogonalEdgeStyle;rounded=0;orthogonalLoop=1;jettySize=auto;html=1;" edge="1" parent="1" source="FzDHs4p050p6bHUNoCHt-1" target="FzDHs4p050p6bHUNoCHt-3">
          <mxGeometry relative="1" as="geometry" />
        </mxCell>
        <mxCell id="FzDHs4p050p6bHUNoCHt-1" value="" style="sketch=0;outlineConnect=0;fontColor=#232F3E;gradientColor=none;fillColor=#E7157B;strokeColor=none;dashed=0;verticalLabelPosition=bottom;verticalAlign=top;align=center;html=1;fontSize=12;fontStyle=0;aspect=fixed;pointerEvents=1;shape=mxgraph.aws4.event_time_based;" vertex="1" parent="1">
          <mxGeometry x="-400" y="140" width="78" height="78" as="geometry" />
        </mxCell>
        <mxCell id="FzDHs4p050p6bHUNoCHt-2" value="CloudWatch Event Rule" style="text;html=1;align=center;verticalAlign=middle;resizable=0;points=[];autosize=1;strokeColor=none;fillColor=none;" vertex="1" parent="1">
          <mxGeometry x="-440" y="218" width="150" height="30" as="geometry" />
        </mxCell>
        <mxCell id="FzDHs4p050p6bHUNoCHt-8" style="edgeStyle=orthogonalEdgeStyle;rounded=0;orthogonalLoop=1;jettySize=auto;html=1;" edge="1" parent="1" source="FzDHs4p050p6bHUNoCHt-3" target="FzDHs4p050p6bHUNoCHt-5">
          <mxGeometry relative="1" as="geometry" />
        </mxCell>
        <mxCell id="FzDHs4p050p6bHUNoCHt-3" value="" style="outlineConnect=0;dashed=0;verticalLabelPosition=bottom;verticalAlign=top;align=center;html=1;shape=mxgraph.aws3.lambda_function;fillColor=#F58534;gradientColor=none;" vertex="1" parent="1">
          <mxGeometry x="30" y="143" width="69" height="72" as="geometry" />
        </mxCell>
        <mxCell id="FzDHs4p050p6bHUNoCHt-16" style="edgeStyle=orthogonalEdgeStyle;rounded=0;orthogonalLoop=1;jettySize=auto;html=1;" edge="1" parent="1" source="FzDHs4p050p6bHUNoCHt-4" target="FzDHs4p050p6bHUNoCHt-12">
          <mxGeometry relative="1" as="geometry" />
        </mxCell>
        <mxCell id="FzDHs4p050p6bHUNoCHt-19" value="sends logs" style="edgeLabel;html=1;align=center;verticalAlign=middle;resizable=0;points=[];" vertex="1" connectable="0" parent="FzDHs4p050p6bHUNoCHt-16">
          <mxGeometry x="0.381" y="-1" relative="1" as="geometry">
            <mxPoint y="1" as="offset" />
          </mxGeometry>
        </mxCell>
        <mxCell id="FzDHs4p050p6bHUNoCHt-22" style="edgeStyle=orthogonalEdgeStyle;rounded=0;orthogonalLoop=1;jettySize=auto;html=1;" edge="1" parent="1" source="FzDHs4p050p6bHUNoCHt-4" target="FzDHs4p050p6bHUNoCHt-20">
          <mxGeometry relative="1" as="geometry" />
        </mxCell>
        <mxCell id="FzDHs4p050p6bHUNoCHt-23" value="Attached Role" style="edgeLabel;html=1;align=center;verticalAlign=middle;resizable=0;points=[];" vertex="1" connectable="0" parent="FzDHs4p050p6bHUNoCHt-22">
          <mxGeometry x="-0.0484" relative="1" as="geometry">
            <mxPoint as="offset" />
          </mxGeometry>
        </mxCell>
        <mxCell id="FzDHs4p050p6bHUNoCHt-4" value="AWS Lambda" style="text;html=1;align=center;verticalAlign=middle;resizable=0;points=[];autosize=1;strokeColor=none;fillColor=none;" vertex="1" parent="1">
          <mxGeometry x="4.5" y="218" width="100" height="30" as="geometry" />
        </mxCell>
        <mxCell id="FzDHs4p050p6bHUNoCHt-5" value="" style="sketch=0;points=[[0,0,0],[0.25,0,0],[0.5,0,0],[0.75,0,0],[1,0,0],[0,1,0],[0.25,1,0],[0.5,1,0],[0.75,1,0],[1,1,0],[0,0.25,0],[0,0.5,0],[0,0.75,0],[1,0.25,0],[1,0.5,0],[1,0.75,0]];outlineConnect=0;fontColor=#232F3E;fillColor=#7AA116;strokeColor=#ffffff;dashed=0;verticalLabelPosition=bottom;verticalAlign=top;align=center;html=1;fontSize=12;fontStyle=0;aspect=fixed;shape=mxgraph.aws4.resourceIcon;resIcon=mxgraph.aws4.s3;" vertex="1" parent="1">
          <mxGeometry x="425" y="140" width="78" height="78" as="geometry" />
        </mxCell>
        <mxCell id="FzDHs4p050p6bHUNoCHt-6" value="S3 bucket" style="text;html=1;align=center;verticalAlign=middle;resizable=0;points=[];autosize=1;strokeColor=none;fillColor=none;" vertex="1" parent="1">
          <mxGeometry x="408" y="221" width="80" height="30" as="geometry" />
        </mxCell>
        <mxCell id="FzDHs4p050p6bHUNoCHt-9" value="triggers funciton" style="text;html=1;align=center;verticalAlign=middle;whiteSpace=wrap;rounded=0;" vertex="1" parent="1">
          <mxGeometry x="-230" y="150" width="120" height="30" as="geometry" />
        </mxCell>
        <mxCell id="FzDHs4p050p6bHUNoCHt-10" value="stores data" style="text;html=1;align=center;verticalAlign=middle;resizable=0;points=[];autosize=1;strokeColor=none;fillColor=none;" vertex="1" parent="1">
          <mxGeometry x="220" y="150" width="80" height="30" as="geometry" />
        </mxCell>
        <mxCell id="FzDHs4p050p6bHUNoCHt-11" value="" style="sketch=0;points=[[0,0,0],[0.25,0,0],[0.5,0,0],[0.75,0,0],[1,0,0],[0,1,0],[0.25,1,0],[0.5,1,0],[0.75,1,0],[1,1,0],[0,0.25,0],[0,0.5,0],[0,0.75,0],[1,0.25,0],[1,0.5,0],[1,0.75,0]];outlineConnect=0;fontColor=#232F3E;fillColor=#7AA116;strokeColor=#ffffff;dashed=0;verticalLabelPosition=bottom;verticalAlign=top;align=center;html=1;fontSize=12;fontStyle=0;aspect=fixed;shape=mxgraph.aws4.resourceIcon;resIcon=mxgraph.aws4.cost_explorer;" vertex="1" parent="1">
          <mxGeometry x="-199" y="472" width="78" height="78" as="geometry" />
        </mxCell>
        <mxCell id="FzDHs4p050p6bHUNoCHt-12" value="" style="sketch=0;outlineConnect=0;fontColor=#232F3E;gradientColor=none;fillColor=#E7157B;strokeColor=none;dashed=0;verticalLabelPosition=bottom;verticalAlign=top;align=center;html=1;fontSize=12;fontStyle=0;aspect=fixed;pointerEvents=1;shape=mxgraph.aws4.cloudwatch_logs;" vertex="1" parent="1">
          <mxGeometry x="240" y="482" width="78" height="58" as="geometry" />
        </mxCell>
        <mxCell id="FzDHs4p050p6bHUNoCHt-13" value="AWS Cost Explorer" style="text;html=1;align=center;verticalAlign=middle;resizable=0;points=[];autosize=1;strokeColor=none;fillColor=none;" vertex="1" parent="1">
          <mxGeometry x="-235" y="550" width="130" height="30" as="geometry" />
        </mxCell>
        <mxCell id="FzDHs4p050p6bHUNoCHt-14" value="CloudWatch Logs" style="text;html=1;align=center;verticalAlign=middle;resizable=0;points=[];autosize=1;strokeColor=none;fillColor=none;" vertex="1" parent="1">
          <mxGeometry x="220" y="540" width="120" height="30" as="geometry" />
        </mxCell>
        <mxCell id="FzDHs4p050p6bHUNoCHt-15" style="edgeStyle=orthogonalEdgeStyle;rounded=0;orthogonalLoop=1;jettySize=auto;html=1;entryX=0.5;entryY=0;entryDx=0;entryDy=0;entryPerimeter=0;" edge="1" parent="1" source="FzDHs4p050p6bHUNoCHt-17" target="FzDHs4p050p6bHUNoCHt-11">
          <mxGeometry relative="1" as="geometry" />
        </mxCell>
        <mxCell id="FzDHs4p050p6bHUNoCHt-18" value="" style="edgeStyle=orthogonalEdgeStyle;rounded=0;orthogonalLoop=1;jettySize=auto;html=1;entryX=0.5;entryY=0;entryDx=0;entryDy=0;entryPerimeter=0;" edge="1" parent="1" source="FzDHs4p050p6bHUNoCHt-4" target="FzDHs4p050p6bHUNoCHt-17">
          <mxGeometry relative="1" as="geometry">
            <mxPoint x="5" y="233" as="sourcePoint" />
            <mxPoint x="-170" y="472" as="targetPoint" />
          </mxGeometry>
        </mxCell>
        <mxCell id="FzDHs4p050p6bHUNoCHt-17" value="pulls cost and Usage Data" style="text;html=1;align=center;verticalAlign=middle;whiteSpace=wrap;rounded=0;" vertex="1" parent="1">
          <mxGeometry x="-200" y="340" width="80" height="30" as="geometry" />
        </mxCell>
        <mxCell id="FzDHs4p050p6bHUNoCHt-20" value="" style="sketch=0;outlineConnect=0;fontColor=#232F3E;gradientColor=none;fillColor=#DD344C;strokeColor=none;dashed=0;verticalLabelPosition=bottom;verticalAlign=top;align=center;html=1;fontSize=12;fontStyle=0;aspect=fixed;pointerEvents=1;shape=mxgraph.aws4.role;" vertex="1" parent="1">
          <mxGeometry x="15.5" y="496" width="78" height="44" as="geometry" />
        </mxCell>
        <mxCell id="FzDHs4p050p6bHUNoCHt-21" value="Lambda IAM role" style="text;html=1;align=center;verticalAlign=middle;resizable=0;points=[];autosize=1;strokeColor=none;fillColor=none;" vertex="1" parent="1">
          <mxGeometry x="4.5" y="540" width="110" height="30" as="geometry" />
        </mxCell>
        <mxCell id="FzDHs4p050p6bHUNoCHt-24" value="" style="sketch=0;points=[[0,0,0],[0.25,0,0],[0.5,0,0],[0.75,0,0],[1,0,0],[0,1,0],[0.25,1,0],[0.5,1,0],[0.75,1,0],[1,1,0],[0,0.25,0],[0,0.5,0],[0,0.75,0],[1,0.25,0],[1,0.5,0],[1,0.75,0]];outlineConnect=0;fontColor=#232F3E;fillColor=#7AA116;strokeColor=#ffffff;dashed=0;verticalLabelPosition=bottom;verticalAlign=top;align=center;html=1;fontSize=12;fontStyle=0;aspect=fixed;shape=mxgraph.aws4.resourceIcon;resIcon=mxgraph.aws4.budgets_2;" vertex="1" parent="1">
          <mxGeometry x="-330" y="740" width="78" height="78" as="geometry" />
        </mxCell>
        <mxCell id="FzDHs4p050p6bHUNoCHt-25" value="" style="shape=actor;whiteSpace=wrap;html=1;" vertex="1" parent="1">
          <mxGeometry x="380" y="749" width="40" height="60" as="geometry" />
        </mxCell>
        <mxCell id="FzDHs4p050p6bHUNoCHt-26" style="edgeStyle=orthogonalEdgeStyle;rounded=0;orthogonalLoop=1;jettySize=auto;html=1;entryX=0.1;entryY=0.5;entryDx=0;entryDy=0;entryPerimeter=0;" edge="1" parent="1" source="FzDHs4p050p6bHUNoCHt-24" target="FzDHs4p050p6bHUNoCHt-25">
          <mxGeometry relative="1" as="geometry" />
        </mxCell>
        <mxCell id="FzDHs4p050p6bHUNoCHt-27" value="Send Alerts" style="edgeLabel;html=1;align=center;verticalAlign=middle;resizable=0;points=[];" vertex="1" connectable="0" parent="FzDHs4p050p6bHUNoCHt-26">
          <mxGeometry x="-0.1447" y="-1" relative="1" as="geometry">
            <mxPoint as="offset" />
          </mxGeometry>
        </mxCell>
        <mxCell id="FzDHs4p050p6bHUNoCHt-28" value="Alert Recipient" style="text;html=1;align=center;verticalAlign=middle;resizable=0;points=[];autosize=1;strokeColor=none;fillColor=none;" vertex="1" parent="1">
          <mxGeometry x="330" y="818" width="100" height="30" as="geometry" />
        </mxCell>
      </root>
    </mxGraphModel>
  </diagram>
</mxfile>
